<svg xmlns="http://www.w3.org/2000/svg" width="1000" height="640" viewBox="0 0 1000 640" fill="none">
  <defs>
    <pattern id="grid" width="40" height="40" patternUnits="userSpaceOnUse"><path d="M40 0H0V40" stroke="#262c38" stroke-width=".6"/></pattern>
    <linearGradient id="panel" x1="180" y1="130" x2="540" y2="490" gradientUnits="userSpaceOnUse"><stop stop-color="#232b3d"/><stop offset="1" stop-color="#11151e"/></linearGradient>
    <linearGradient id="beam"><stop stop-color="#0548fd" stop-opacity=".2"/><stop offset=".6" stop-color="#5b8fff"/><stop offset="1" stop-color="#a4c8ff"/></linearGradient>
    <radialGradient id="glow"><stop stop-color="#0548fd" stop-opacity=".2"/><stop offset="1" stop-color="#0548fd" stop-opacity="0"/></radialGradient>
  </defs>
  <rect width="1000" height="640" fill="#101114"/>
  <rect width="1000" height="640" fill="url(#grid)"/>
  <ellipse cx="470" cy="340" rx="400" ry="300" fill="url(#glow)"/>
  <g stroke="#394356" stroke-width="1.5">
    <path d="M165 278 380 156 598 281 382 407Z" fill="#141b2a"/>
    <path d="m165 278 217 129v71L165 349Z" fill="#111722"/>
    <path d="m382 407 216-126v70L382 478Z" fill="#192336"/>
    <path d="M187 244 380 134 576 247 382 362Z" fill="url(#panel)"/>
    <path d="m187 244 195 118v33L187 277Z" fill="#192232"/>
    <path d="m382 362 194-115v32L382 395Z" fill="#111a2a"/>
    <path d="m242 236 138-79 141 81-139 82Z" fill="#101724" stroke="#5279b6"/>
    <path d="m268 236 112-63 114 64-112 65Z" stroke="#0548fd"/>
  </g>
  <g stroke="#0548fd" stroke-width="2"><path d="m177 314 205 123 205-119"/><path d="m177 330 205 123 205-119" opacity=".4"/></g>
  <g stroke="#497bce" opacity=".7"><path d="m264 196-22-13m44 0-22-13m43 0-22-13m169 43 23-13m-1 27 23-13m0 27 23-13M288 296l-23 13m46 0-23 13m48 1-23 13"/></g>
  <g stroke="url(#beam)" stroke-width="2"><path d="M532 390h74l72-71h192"/><path d="M510 416h110l74-73h176"/><path d="M487 442h147l75-75h161"/></g>
  <g fill="#bad6ff"><circle cx="678" cy="319" r="3"/><circle cx="720" cy="343" r="3"/><circle cx="752" cy="367" r="3"/></g>
  <rect x="722" y="175" width="183" height="255" rx="13" fill="#131821" stroke="#4c5c77"/>
  <path d="M722 211h183" stroke="#364254"/>
  <g fill="#73839d"><circle cx="739" cy="193" r="3"/><circle cx="751" cy="193" r="3"/><circle cx="763" cy="193" r="3"/></g>
  <rect x="744" y="231" width="75" height="5" rx="2.5" fill="#b5c5dd"/>
  <g fill="#465570"><rect x="744" y="251" width="137" height="4" rx="2"/><rect x="744" y="263" width="111" height="4" rx="2"/><rect x="744" y="275" width="127" height="4" rx="2"/></g>
  <rect x="743" y="300" width="139" height="67" rx="5" fill="#0548fd" fill-opacity=".12" stroke="#0548fd"/>
  <path d="m763 333 8 8 16-19m12 12h61" stroke="#84acff" stroke-width="2"/>
  <g fill="#465570"><rect x="744" y="386" width="137" height="4" rx="2"/><rect x="744" y="398" width="91" height="4" rx="2"/></g>
  <g font-family="monospace" font-size="11" letter-spacing="2" fill="#9ba9be"><text x="293" y="534">LOCAL COMPUTE</text><text x="767" y="480">YOUR APP</text><text x="610" y="292" fill="#84acff">TOKEN STREAM</text></g>
  <g stroke="#69768c"><path d="M56 56h16m-8-8v16m864 528h16m-8-8v16"/><path d="M56 584h80m-80-8v16m80-16v16"/></g>
</svg>
